# Blender v2.69 (sub 0) OBJ File: 'test.blend'
# www.blender.org
mtllib test.mtl
o Plane
v -4.297375 -0.913238 4.615952
v 4.737247 -0.913238 4.615952
v -4.297375 -0.913238 -4.342200
v 4.737247 -0.913238 -4.342200
vn 0.000000 -1.000000 0.000000
usemtl None
s off
f 2//1 1//1 4//1
f 1//1 3//1 4//1
o Cylinder
v 0.249599 1.171644 -0.863124
v 0.249599 3.171644 -0.863124
v 0.444689 1.171644 -0.843909
v 0.444689 3.171644 -0.843909
v 0.632283 1.171644 -0.787003
v 0.632283 3.171644 -0.787003
v 0.805169 1.171644 -0.694593
v 0.805169 3.171644 -0.694593
v 0.956706 1.171644 -0.570231
v 0.956706 3.171644 -0.570231
v 1.081069 1.171644 -0.418694
v 1.081069 3.171644 -0.418694
v 1.173479 1.171644 -0.245807
v 1.173479 3.171644 -0.245807
v 1.230384 1.171644 -0.058214
v 1.230384 3.171644 -0.058214
v 1.249599 1.171644 0.136876
v 1.249599 3.171644 0.136876
v 1.230384 1.171644 0.331966
v 1.230384 3.171644 0.331966
v 1.173479 1.171644 0.519560
v 1.173479 3.171644 0.519560
v 1.081069 1.171644 0.692446
v 1.081069 3.171644 0.692446
v 0.956706 1.171644 0.843983
v 0.956706 3.171644 0.843983
v 0.805169 1.171644 0.968346
v 0.805169 3.171644 0.968346
v 0.632282 1.171644 1.060756
v 0.632282 3.171644 1.060756
v 0.444689 1.171644 1.117661
v 0.444689 3.171644 1.117661
v 0.249599 1.171644 1.136876
v 0.249599 3.171644 1.136876
v 0.054508 1.171644 1.117661
v 0.054508 3.171644 1.117661
v -0.133085 1.171644 1.060755
v -0.133085 3.171644 1.060755
v -0.305972 1.171644 0.968346
v -0.305972 3.171644 0.968346
v -0.457508 1.171644 0.843983
v -0.457508 3.171644 0.843983
v -0.581871 1.171644 0.692446
v -0.581871 3.171644 0.692446
v -0.674281 1.171644 0.519559
v -0.674281 3.171644 0.519559
v -0.731186 1.171644 0.331966
v -0.731186 3.171644 0.331966
v -0.750401 1.171644 0.136875
v -0.750401 3.171644 0.136875
v -0.731186 1.171644 -0.058215
v -0.731186 3.171644 -0.058215
v -0.674280 1.171644 -0.245808
v -0.674280 3.171644 -0.245808
v -0.581870 1.171644 -0.418695
v -0.581870 3.171644 -0.418695
v -0.457507 1.171644 -0.570231
v -0.457507 3.171644 -0.570231
v -0.305970 1.171644 -0.694594
v -0.305970 3.171644 -0.694594
v -0.133083 1.171644 -0.787004
v -0.133083 3.171644 -0.787004
v 0.054510 1.171644 -0.843909
v 0.054510 3.171644 -0.843909
vn 0.098017 0.000000 -0.995185
vn 0.290285 0.000000 -0.956940
vn 0.471396 0.000000 -0.881921
vn 0.634393 0.000000 -0.773010
vn 0.773010 0.000000 -0.634393
vn 0.881921 0.000000 -0.471397
vn 0.956940 0.000000 -0.290285
vn 0.995185 0.000000 -0.098017
vn 0.995185 0.000000 0.098017
vn 0.956940 0.000000 0.290285
vn 0.881921 0.000000 0.471397
vn 0.773010 0.000000 0.634393
vn 0.634393 0.000000 0.773011
vn 0.471397 0.000000 0.881921
vn 0.290283 0.000000 0.956941
vn 0.098017 0.000000 0.995185
vn -0.098018 0.000000 0.995185
vn -0.290286 0.000000 0.956940
vn -0.471397 0.000000 0.881921
vn -0.634394 0.000000 0.773010
vn -0.773011 0.000000 0.634393
vn -0.881922 0.000000 0.471396
vn -0.956941 0.000000 0.290284
vn -0.995185 0.000000 0.098016
vn -0.995185 0.000000 -0.098018
vn -0.956940 0.000000 -0.290286
vn -0.881921 0.000000 -0.471398
vn -0.773009 0.000000 -0.634394
vn -0.634392 0.000000 -0.773011
vn -0.471395 0.000000 -0.881922
vn 0.000000 1.000000 0.000000
vn -0.098017 0.000000 -0.995185
vn -0.290283 0.000000 -0.956941
vn 0.000000 -1.000000 0.000000
vn 0.471397 0.000000 -0.881921
vn 0.634394 0.000000 0.773010
vn 0.471396 0.000000 0.881922
vn 0.290285 0.000000 0.956940
vn 0.098018 0.000000 0.995185
vn -0.290285 0.000000 0.956940
vn -0.471396 0.000000 0.881921
vn -0.773010 0.000000 -0.634394
vn 0.000000 1.000000 -0.000005
vn 0.000000 1.000000 0.000007
vn 0.000000 1.000000 0.000004
vn 0.000000 1.000000 -0.000001
vn 0.000000 1.000000 0.000001
vn 0.000000 1.000000 -0.000016
vn 0.000000 1.000000 0.000002
vn 0.000000 1.000000 -0.000002
vn -0.098016 0.000000 -0.995185
vn 0.000000 -1.000000 -0.000002
vn 0.000000 -1.000000 0.000002
vn 0.000000 -1.000000 0.000001
vn 0.000000 -1.000000 -0.000001
vn 0.000000 -1.000000 -0.000004
usemtl None
s off
f 5//2 6//2 7//2
f 7//3 8//3 9//3
f 9//4 10//4 11//4
f 11//5 12//5 13//5
f 13//6 14//6 15//6
f 15//7 16//7 17//7
f 17//8 18//8 19//8
f 19//9 20//9 21//9
f 21//10 22//10 23//10
f 23//11 24//11 25//11
f 25//12 26//12 27//12
f 27//13 28//13 29//13
f 29//14 30//14 31//14
f 31//15 32//15 33//15
f 33//16 34//16 35//16
f 35//17 36//17 37//17
f 37//18 38//18 39//18
f 39//19 40//19 41//19
f 41//20 42//20 43//20
f 43//21 44//21 45//21
f 45//22 46//22 47//22
f 47//23 48//23 49//23
f 49//24 50//24 51//24
f 51//25 52//25 53//25
f 53//26 54//26 55//26
f 55//27 56//27 57//27
f 57//28 58//28 59//28
f 59//29 60//29 61//29
f 61//30 62//30 63//30
f 63//31 64//31 65//31
f 8//32 6//32 10//32
f 67//33 68//33 5//33
f 65//34 66//34 67//34
f 5//35 7//35 67//35
f 6//2 8//2 7//2
f 8//3 10//3 9//3
f 10//36 12//36 11//36
f 12//5 14//5 13//5
f 14//6 16//6 15//6
f 16//7 18//7 17//7
f 18//8 20//8 19//8
f 20//9 22//9 21//9
f 22//10 24//10 23//10
f 24//11 26//11 25//11
f 26//12 28//12 27//12
f 28//13 30//13 29//13
f 30//37 32//37 31//37
f 32//38 34//38 33//38
f 34//39 36//39 35//39
f 36//40 38//40 37//40
f 38//18 40//18 39//18
f 40//41 42//41 41//41
f 42//42 44//42 43//42
f 44//21 46//21 45//21
f 46//22 48//22 47//22
f 48//23 50//23 49//23
f 50//24 52//24 51//24
f 52//25 54//25 53//25
f 54//26 56//26 55//26
f 56//27 58//27 57//27
f 58//28 60//28 59//28
f 60//43 62//43 61//43
f 62//30 64//30 63//30
f 64//31 66//31 65//31
f 6//32 68//32 10//32
f 68//32 66//32 10//32
f 66//32 64//32 10//32
f 64//44 62//44 10//44
f 62//45 60//45 10//45
f 60//32 58//32 10//32
f 58//46 56//46 10//46
f 56//32 54//32 10//32
f 54//32 52//32 10//32
f 52//32 50//32 10//32
f 50//47 48//47 10//47
f 48//48 46//48 10//48
f 46//32 44//32 10//32
f 44//49 42//49 40//49
f 10//32 44//32 40//32
f 10//32 40//32 38//32
f 12//32 10//32 38//32
f 30//32 34//32 32//32
f 14//32 12//32 38//32
f 16//32 14//32 38//32
f 30//32 36//32 34//32
f 26//32 30//32 28//32
f 26//50 36//50 30//50
f 26//47 38//47 36//47
f 22//32 26//32 24//32
f 22//50 38//50 26//50
f 20//51 38//51 22//51
f 18//32 16//32 38//32
f 20//32 18//32 38//32
f 68//52 6//52 5//52
f 66//34 68//34 67//34
f 7//35 9//35 67//35
f 9//35 11//35 67//35
f 11//35 13//35 67//35
f 13//53 15//53 67//53
f 15//54 17//54 67//54
f 17//35 19//35 67//35
f 19//55 21//55 67//55
f 21//35 23//35 67//35
f 23//35 25//35 67//35
f 25//56 27//56 67//56
f 27//55 29//55 67//55
f 57//55 53//55 55//55
f 59//56 53//56 57//56
f 29//35 31//35 33//35
f 67//35 29//35 33//35
f 39//57 35//57 37//57
f 39//55 33//55 35//55
f 67//35 33//35 39//35
f 67//35 39//35 41//35
f 65//35 67//35 41//35
f 63//35 65//35 41//35
f 63//35 41//35 43//35
f 51//35 47//35 49//35
f 59//35 51//35 53//35
f 59//35 47//35 51//35
f 59//35 45//35 47//35
f 59//35 61//35 45//35
f 61//35 63//35 45//35
f 63//35 43//35 45//35
o Cube
v -0.780064 -0.870912 1.136876
v -0.780064 -0.870912 -0.863124
v 1.219936 -0.870912 -0.863124
v 1.219936 -0.870912 1.136876
v -0.780064 1.129087 1.136876
v -0.780064 1.129087 -0.863124
v 1.219936 1.129087 -0.863124
v 1.219936 1.129087 1.136876
vn -1.000000 0.000000 0.000000
vn 0.000000 0.000000 -1.000000
vn 1.000000 0.000000 0.000000
vn 0.000000 0.000000 1.000000
vn 0.000000 -1.000000 0.000000
vn 0.000000 1.000000 0.000000
usemtl None
s off
f 73//58 74//58 69//58
f 74//59 75//59 70//59
f 75//60 76//60 71//60
f 76//61 73//61 72//61
f 69//62 70//62 72//62
f 76//63 75//63 73//63
f 74//58 70//58 69//58
f 75//59 71//59 70//59
f 76//60 72//60 71//60
f 73//61 69//61 72//61
f 70//62 71//62 72//62
f 75//63 74//63 73//63
